# xmcd
#
# Track frame offsets:
#	150
#	19055
#	34367
#	56030
#	74517
#	92720
#	110795
#	132072
#	151912
#	163790
#	184125
#	202087
#
# Disc length: 2985 seconds
#
# Revision: 1
# Processed by: cddbd v1.5.1PL0 Copyright (c) Steve Scherf et al.
# Submitted via: CDex 1.50Beta5
#
DISCID=ae0ba70c
DTITLE=さまざまなアーティスト - FOLK and POPS/Best&Best
DYEAR=1900
DGENRE=Pop
TTITLE0=安全地帯/ワインレッドの心
TTITLE1=井上陽水/心もよう
TTITLE2=来生たかお/夢の途中
TTITLE3=KAN/愛は勝つ
TTITLE4=H2O/思い出がいっぱい
TTITLE5=石川セリ/ダンスはうまく踊れない
TTITLE6=BORO/大阪で生まれた女
TTITLE7=来生たかお/シルエット・ロマンス
TTITLE8=井上陽水/夢の中へ
TTITLE9=安全地帯/悲しみにさよなら
TTITLE10=もんた&ブラザーズ/ダンシング・オールナイト
TTITLE11=つのだ★ひろ/メリー・ジェーン
EXTD=
EXTT0=
EXTT1=
EXTT2=
EXTT3=
EXTT4=
EXTT5=
EXTT6=
EXTT7=
EXTT8=
EXTT9=
EXTT10=
EXTT11=
PLAYORDER=
